<svg id="Layer_1" data-name="Layer 1" xmlns="http://www.w3.org/2000/svg" xmlns:xlink="http://www.w3.org/1999/xlink" viewBox="0 0 512 512"><defs><pattern id="USGS_8_Sewage_Disposal" data-name="USGS 8 Sewage Disposal" width="72" height="74.8" patternTransform="translate(-427.07 730.44) scale(2.71 2.71)" patternUnits="userSpaceOnUse" viewBox="0 0 72 74.8"><rect width="72" height="74.8" fill="none"/><line y1="73.95" x2="72" y2="73.95" fill="none" stroke="#1f191a" stroke-linecap="square" stroke-width="0.3"/><line y1="72.25" x2="72" y2="72.25" fill="none" stroke="#1f191a" stroke-linecap="square" stroke-width="0.3"/><line y1="70.55" x2="72" y2="70.55" fill="none" stroke="#1f191a" stroke-linecap="square" stroke-width="0.3"/><line y1="68.85" x2="72" y2="68.85" fill="none" stroke="#1f191a" stroke-linecap="square" stroke-width="0.3"/><line y1="67.15" x2="72" y2="67.15" fill="none" stroke="#1f191a" stroke-linecap="square" stroke-width="0.3"/><line y1="65.45" x2="72" y2="65.45" fill="none" stroke="#1f191a" stroke-linecap="square" stroke-width="0.3"/><line y1="63.75" x2="72" y2="63.75" fill="none" stroke="#1f191a" stroke-linecap="square" stroke-width="0.3"/><line y1="62.05" x2="72" y2="62.05" fill="none" stroke="#1f191a" stroke-linecap="square" stroke-width="0.3"/><line y1="60.35" x2="72" y2="60.35" fill="none" stroke="#1f191a" stroke-linecap="square" stroke-width="0.3"/><line y1="58.65" x2="72" y2="58.65" fill="none" stroke="#1f191a" stroke-linecap="square" stroke-width="0.3"/><line y1="56.95" x2="72" y2="56.95" fill="none" stroke="#1f191a" stroke-linecap="square" stroke-width="0.3"/><line y1="55.25" x2="72" y2="55.25" fill="none" stroke="#1f191a" stroke-linecap="square" stroke-width="0.3"/><line y1="53.55" x2="72" y2="53.55" fill="none" stroke="#1f191a" stroke-linecap="square" stroke-width="0.3"/><line y1="51.85" x2="72" y2="51.85" fill="none" stroke="#1f191a" stroke-linecap="square" stroke-width="0.3"/><line y1="50.15" x2="72" y2="50.15" fill="none" stroke="#1f191a" stroke-linecap="square" stroke-width="0.3"/><line y1="48.45" x2="72" y2="48.45" fill="none" stroke="#1f191a" stroke-linecap="square" stroke-width="0.3"/><line y1="46.75" x2="72" y2="46.75" fill="none" stroke="#1f191a" stroke-linecap="square" stroke-width="0.3"/><line y1="45.05" x2="72" y2="45.05" fill="none" stroke="#1f191a" stroke-linecap="square" stroke-width="0.3"/><line y1="43.35" x2="72" y2="43.35" fill="none" stroke="#1f191a" stroke-linecap="square" stroke-width="0.3"/><line y1="41.65" x2="72" y2="41.65" fill="none" stroke="#1f191a" stroke-linecap="square" stroke-width="0.3"/><line y1="39.95" x2="72" y2="39.95" fill="none" stroke="#1f191a" stroke-linecap="square" stroke-width="0.3"/><line y1="38.25" x2="72" y2="38.25" fill="none" stroke="#1f191a" stroke-linecap="square" stroke-width="0.3"/><line y1="36.55" x2="72" y2="36.55" fill="none" stroke="#1f191a" stroke-linecap="square" stroke-width="0.3"/><line y1="34.85" x2="72" y2="34.85" fill="none" stroke="#1f191a" stroke-linecap="square" stroke-width="0.3"/><line y1="33.15" x2="72" y2="33.15" fill="none" stroke="#1f191a" stroke-linecap="square" stroke-width="0.3"/><line y1="31.45" x2="72" y2="31.45" fill="none" stroke="#1f191a" stroke-linecap="square" stroke-width="0.3"/><line y1="29.75" x2="72" y2="29.75" fill="none" stroke="#1f191a" stroke-linecap="square" stroke-width="0.3"/><line y1="28.05" x2="72" y2="28.05" fill="none" stroke="#1f191a" stroke-linecap="square" stroke-width="0.3"/><line y1="26.35" x2="72" y2="26.35" fill="none" stroke="#1f191a" stroke-linecap="square" stroke-width="0.3"/><line y1="24.65" x2="72" y2="24.65" fill="none" stroke="#1f191a" stroke-linecap="square" stroke-width="0.3"/><line y1="22.95" x2="72" y2="22.95" fill="none" stroke="#1f191a" stroke-linecap="square" stroke-width="0.3"/><line y1="21.25" x2="72" y2="21.25" fill="none" stroke="#1f191a" stroke-linecap="square" stroke-width="0.3"/><line y1="19.55" x2="72" y2="19.55" fill="none" stroke="#1f191a" stroke-linecap="square" stroke-width="0.3"/><line y1="17.85" x2="72" y2="17.85" fill="none" stroke="#1f191a" stroke-linecap="square" stroke-width="0.3"/><line y1="16.15" x2="72" y2="16.15" fill="none" stroke="#1f191a" stroke-linecap="square" stroke-width="0.3"/><line y1="14.45" x2="72" y2="14.45" fill="none" stroke="#1f191a" stroke-linecap="square" stroke-width="0.3"/><line y1="12.75" x2="72" y2="12.75" fill="none" stroke="#1f191a" stroke-linecap="square" stroke-width="0.3"/><line y1="11.05" x2="72" y2="11.05" fill="none" stroke="#1f191a" stroke-linecap="square" stroke-width="0.3"/><line y1="9.35" x2="72" y2="9.35" fill="none" stroke="#1f191a" stroke-linecap="square" stroke-width="0.3"/><line y1="7.65" x2="72" y2="7.65" fill="none" stroke="#1f191a" stroke-linecap="square" stroke-width="0.3"/><line y1="5.95" x2="72" y2="5.95" fill="none" stroke="#1f191a" stroke-linecap="square" stroke-width="0.3"/><line y1="4.25" x2="72" y2="4.25" fill="none" stroke="#1f191a" stroke-linecap="square" stroke-width="0.3"/><line y1="2.55" x2="72" y2="2.55" fill="none" stroke="#1f191a" stroke-linecap="square" stroke-width="0.3"/><line y1="0.85" x2="72" y2="0.85" fill="none" stroke="#1f191a" stroke-linecap="square" stroke-width="0.3"/><line x1="-21.5" y1="7.65" x2="-10.25" y2="7.65" fill="none" stroke="#1f191a" stroke-linecap="square" stroke-width="0.3"/></pattern></defs><title>linkedin-other</title><path d="M512,281.78C512,407.92,409.71,510,283.57,510S55.12,407.92,55.12,281.78c0-126.75,102.42-228.9,228.44-228.9S512,155,512,281.78Z" fill="url(#USGS_8_Sewage_Disposal)"/><path d="M495,264.8c0,126.14-102.29,228.27-228.43,228.27S38.16,390.94,38.16,264.8C38.16,138,140.59,35.9,266.61,35.9S495,138,495,264.8Z" fill="url(#USGS_8_Sewage_Disposal)"/><path d="M469.6,245.7C469.6,371.84,367.3,474,241.16,474S12.72,371.84,12.72,245.7c0-126.75,102.42-228.9,228.44-228.9S469.6,118.95,469.6,245.7Z" fill="#1f191a"/><path d="M463.23,235.09c0,126.14-102.29,228.27-228.43,228.27S6.36,361.23,6.36,235.09C6.36,108.34,108.78,6.19,234.8,6.19S463.23,108.34,463.23,235.09Z" fill="#333"/><path d="M469.6,245.7C469.6,371.84,367.3,474,241.16,474S12.72,371.84,12.72,245.7c0-126.75,102.42-228.9,228.44-228.9S469.6,118.95,469.6,245.7Z" fill="none" stroke="#1f191a" stroke-width="2.12"/><path d="M459,233c0,126.14-102.29,228.27-228.43,228.27S2.12,359.11,2.12,233c0-126.75,102.42-228.9,228.44-228.9S459,106.22,459,233Z" fill="#fff"/><path d="M459,233c0,126.14-102.29,228.27-228.43,228.27S2.12,359.11,2.12,233c0-126.75,102.42-228.9,228.44-228.9S459,106.22,459,233Z" fill="#fff"/><path d="M459,233c0,126.14-102.29,228.27-228.43,228.27S2.12,359.11,2.12,233c0-126.75,102.42-228.9,228.44-228.9S459,106.22,459,233Z" fill="none" stroke="#1f191a" stroke-width="4.24"/><path d="M120.78,165V127.64h40.05V165Zm0,172.72V185.77h40.05v151.9Z" fill="#434040"/><path d="M340.33,337.67H300V260.12c0-16.24-.84-26.91-2.64-31.64a21.87,21.87,0,0,0-8.3-11.65c-3.75-2.63-8.74-3.61-14-3.61a32.55,32.55,0,0,0-18.71,5.55,27.19,27.19,0,0,0-11.23,15.4c-1.94,5.82-3.19,17.62-3.19,34.82v68.67H201.72V185.77h37.43V208.1c13.17-17.2,29.93-26.08,50-26.08a60.9,60.9,0,0,1,24.13,5c7.48,3.32,13,7.2,16.76,12.2A46.6,46.6,0,0,1,338,216c1.38,6.38,2.36,15.26,2.36,27.46Z" fill="#434040"/></svg>